<svg xmlns="http://www.w3.org/2000/svg" xmlns:xlink="http://www.w3.org/1999/xlink" viewBox="0 0 541.18 507.73"><defs><style>.cls-1{isolation:isolate;}.cls-2{fill:url(#radial-gradient);}.cls-20,.cls-21,.cls-3,.cls-4{mix-blend-mode:multiply;}.cls-3{fill:url(#radial-gradient-2);}.cls-4{fill:url(#radial-gradient-3);}.cls-5{fill:url(#radial-gradient-4);}.cls-6{fill:#fff;}.cls-7{fill:url(#linear-gradient);}.cls-8{fill:url(#linear-gradient-2);}.cls-9{fill:url(#radial-gradient-5);}.cls-10{fill:url(#linear-gradient-4);}.cls-11{fill:url(#linear-gradient-5);}.cls-12{fill:url(#linear-gradient-6);}.cls-13{fill:url(#linear-gradient-7);}.cls-14{fill:url(#linear-gradient-8);}.cls-15{fill:url(#linear-gradient-9);}.cls-16{fill:url(#linear-gradient-10);}.cls-17{fill:url(#linear-gradient-11);}.cls-18{fill:url(#linear-gradient-12);}.cls-19{fill:url(#linear-gradient-13);}.cls-20{fill:url(#radial-gradient-6);}.cls-21{fill:url(#radial-gradient-7);}.cls-22{fill:url(#radial-gradient-8);}.cls-23{fill:#cd1740;}.cls-24{fill:#e62047;}</style><radialGradient id="radial-gradient" cx="250" cy="250" r="329.7" gradientUnits="userSpaceOnUse"><stop offset="0" stop-color="#1d71b8"/><stop offset="0.28" stop-color="#1e6eb5"/><stop offset="0.51" stop-color="#2064ad"/><stop offset="0.72" stop-color="#2453a0"/><stop offset="0.91" stop-color="#2a3b8d"/><stop offset="1" stop-color="#2d2e83"/></radialGradient><radialGradient id="radial-gradient-2" cx="-582.95" cy="2301.24" r="160.16" gradientTransform="matrix(-1, 0, 0, 0.82, -418.18, -1507.03)" gradientUnits="userSpaceOnUse"><stop offset="0.26" stop-color="#1d1d1b"/><stop offset="0.3" stop-color="#2e2e2c"/><stop offset="0.47" stop-color="#777776"/><stop offset="0.62" stop-color="#b2b2b1"/><stop offset="0.75" stop-color="#dcdcdb"/><stop offset="0.85" stop-color="#f5f5f5"/><stop offset="0.91" stop-color="#fff"/></radialGradient><radialGradient id="radial-gradient-3" cx="-341.6" cy="3188.94" r="148.53" gradientTransform="matrix(-0.86, 0, 0, 0.42, -164.3, -881.03)" gradientUnits="userSpaceOnUse"><stop offset="0.11" stop-color="#1d1d1b"/><stop offset="0.12" stop-color="#1f1f1d"/><stop offset="0.21" stop-color="#535351"/><stop offset="0.31" stop-color="#818180"/><stop offset="0.41" stop-color="#a8a8a7"/><stop offset="0.52" stop-color="#c7c7c7"/><stop offset="0.63" stop-color="#e0e0e0"/><stop offset="0.74" stop-color="#f1f1f1"/><stop offset="0.86" stop-color="#fcfcfc"/><stop offset="1" stop-color="#fff"/></radialGradient><radialGradient id="radial-gradient-4" cx="-582.9" cy="454.26" r="131.42" gradientTransform="matrix(-0.98, 0.22, 0.22, 0.98, -506.89, 50.06)" gradientUnits="userSpaceOnUse"><stop offset="0" stop-color="#fff"/><stop offset="0.36" stop-color="#fcfcfc"/><stop offset="0.65" stop-color="#f2f2f2"/><stop offset="0.92" stop-color="#e1e1e1"/><stop offset="1" stop-color="#dadada"/></radialGradient><linearGradient id="linear-gradient" x1="104.56" y1="363.48" x2="243.64" y2="363.48" gradientTransform="translate(-53.98 30.42) rotate(-8.74)" gradientUnits="userSpaceOnUse"><stop offset="0" stop-color="#e3bf32"/><stop offset="0.58" stop-color="#ffce05"/><stop offset="1" stop-color="#f7f3bd"/></linearGradient><linearGradient id="linear-gradient-2" x1="107.8" y1="363.81" x2="240.41" y2="363.81" gradientTransform="translate(-53.98 -1.79) rotate(-8.74)" xlink:href="#linear-gradient"/><radialGradient id="radial-gradient-5" cx="174.1" cy="363.48" r="67.86" gradientTransform="translate(-53.98 -1.79) rotate(-8.74)" gradientUnits="userSpaceOnUse"><stop offset="0" stop-color="#f7f3bd"/><stop offset="0.72" stop-color="#ffce05"/><stop offset="1" stop-color="#f4cf35"/></radialGradient><linearGradient id="linear-gradient-4" x1="174.1" y1="309.41" x2="201.29" y2="309.41" gradientTransform="translate(-53.98 -1.79) rotate(-8.74)" gradientUnits="userSpaceOnUse"><stop offset="0" stop-color="#d39e2b"/><stop offset="0.27" stop-color="#dda92f"/><stop offset="0.6" stop-color="#e6b332"/></linearGradient><linearGradient id="linear-gradient-5" x1="146.91" y1="309.41" x2="174.1" y2="309.41" gradientTransform="translate(-53.98 -1.79) rotate(-8.74)" xlink:href="#linear-gradient"/><linearGradient id="linear-gradient-6" x1="174.08" y1="426.17" x2="228.49" y2="426.17" xlink:href="#linear-gradient-4"/><linearGradient id="linear-gradient-7" x1="86.1" y1="363.33" x2="139.33" y2="363.33" gradientTransform="translate(-53.98 -1.79) rotate(-8.74)" xlink:href="#linear-gradient"/><linearGradient id="linear-gradient-8" x1="86.1" y1="340.48" x2="152.61" y2="340.48" xlink:href="#linear-gradient-4"/><linearGradient id="linear-gradient-9" x1="119.71" y1="413.54" x2="139.33" y2="413.54" xlink:href="#linear-gradient-4"/><linearGradient id="linear-gradient-10" x1="119.71" y1="426.17" x2="174.1" y2="426.17" gradientTransform="translate(-53.98 -1.79) rotate(-8.74)" xlink:href="#linear-gradient"/><linearGradient id="linear-gradient-11" x1="208.87" y1="413.54" x2="228.49" y2="413.54" gradientTransform="translate(-53.98 -1.79) rotate(-8.74)" xlink:href="#linear-gradient"/><linearGradient id="linear-gradient-12" x1="208.87" y1="363.31" x2="262.11" y2="363.31" xlink:href="#linear-gradient-4"/><linearGradient id="linear-gradient-13" x1="195.59" y1="340.45" x2="262.11" y2="340.45" gradientTransform="translate(-53.98 -1.79) rotate(-8.74)" xlink:href="#linear-gradient"/><radialGradient id="radial-gradient-6" cx="-2812.7" cy="2738.7" r="215.06" gradientTransform="translate(3107.78 -2009.9) scale(1 0.82)" xlink:href="#radial-gradient-2"/><radialGradient id="radial-gradient-7" cx="-2820.45" cy="4815.61" r="199.44" gradientTransform="matrix(0, 0.86, -0.42, 0, 2404.36, 2765.63)" xlink:href="#radial-gradient-3"/><radialGradient id="radial-gradient-8" cx="-2813.8" cy="807.69" r="176.47" gradientTransform="translate(3057.11 -748.52) rotate(-3.2)" xlink:href="#radial-gradient-4"/></defs><title>file [Converted]</title><g class="cls-1"><g id="Isolation_Mode" data-name="Isolation Mode"><rect class="cls-2" width="500" height="500"/><ellipse class="cls-3" cx="164.77" cy="382.01" rx="159.36" ry="132" transform="translate(-80.06 13.44) rotate(-12.72)"/><ellipse class="cls-4" cx="130.24" cy="465.8" rx="127.42" ry="62.98" transform="matrix(0.94, -0.35, 0.35, 0.94, -156.07, 43.77)"/><path class="cls-5" d="M45.92,386.68a108.37,108.37,0,0,0,33.73,57c10.75,9.66,13.07,21.59-34.43,45.23,11.79,4.64,73.59,19.72,158-12.69,63.69-23.5,109.3-83.48,95.09-146.47s-82.25-101.29-152-85.56S31.7,323.69,45.92,386.68Z" transform="translate(0 -32.21)"/><path class="cls-6" d="M68.69,432.33c-10.45-12.73-17.26-27.79-21.05-44.58-14.22-63,30.26-125.9,100-141.63,50.55-11.41,99.92,4.73,128.82,39-28.76-35-78.95-52.46-130-40.93C76.69,259.88,31.7,323.69,45.92,386.68A107.16,107.16,0,0,0,68.69,432.33Z" transform="translate(0 -32.21)"/><path class="cls-7" d="M239.67,337.25l-48.55.4-27.85-39.77-14.63,46.3-46.43,14.2,39.51,28.22-.84,48.55,39-28.86,45.91,15.8L210.46,376Zm-16.23,82.42-43.78-15.07-37.23,27.52.81-46.29-37.68-26.91,44.27-13.54,13.95-44.15,26.56,37.92,46.29-.38-27.86,37Z" transform="translate(0 -32.21)"/><polygon class="cls-8" points="236.64 306.56 190.34 306.94 163.78 269.02 149.84 313.17 105.56 326.71 143.24 353.61 142.44 399.9 179.67 372.38 223.44 387.46 208.78 343.54 236.64 306.56"/><polygon class="cls-7" points="141.72 354.38 140.88 402.93 179.93 374.07 225.84 389.87 210.46 343.82 239.67 305.04 191.12 305.43 163.27 265.66 148.64 311.96 102.21 326.16 141.72 354.38"/><polygon class="cls-9" points="163.3 265.89 163.27 265.66 148.64 311.96 102.21 326.16 141.72 354.38 140.88 402.93 179.93 374.07 225.84 389.87 210.46 343.82 239.67 305.04 191.12 305.43 163.27 265.66 163.3 265.89"/><polygon class="cls-10" points="191.12 305.43 195.56 296.8 160.32 246.47 163.27 265.66 191.12 305.43"/><polygon class="cls-11" points="163.27 265.66 160.32 246.47 141.81 305.06 148.64 311.96 163.27 265.66"/><polygon class="cls-12" points="179.93 374.07 181.38 383.67 181.4 383.66 239.5 403.66 225.8 389.86 179.93 374.07"/><polygon class="cls-13" points="102.28 326.21 83.05 323.03 133.05 358.75 133.05 358.77 141.72 354.38 102.28 326.21"/><polygon class="cls-14" points="102.21 326.16 148.64 311.96 141.81 305.06 83.05 323.03 102.28 326.21 102.21 326.16"/><polygon class="cls-15" points="141.72 354.38 133.05 358.77 131.98 420.19 140.88 402.84 141.72 354.38"/><polygon class="cls-16" points="140.88 402.93 140.88 402.84 131.98 420.19 181.38 383.67 179.93 374.07 140.88 402.93"/><polygon class="cls-17" points="210.46 343.82 225.84 389.87 225.8 389.86 239.5 403.66 220.04 345.38 210.46 343.82"/><polygon class="cls-18" points="257.02 296.3 239.67 305.04 239.67 305.04 210.46 343.82 220.04 345.38 257.02 296.3"/><polygon class="cls-19" points="195.57 296.8 195.56 296.8 191.12 305.43 239.67 305.04 257.02 296.3 195.57 296.8"/><ellipse class="cls-20" cx="295.08" cy="238.25" rx="213.98" ry="177.25" transform="translate(-12.84 -15.36) rotate(-3.2)"/><ellipse class="cls-21" cx="370.52" cy="333.73" rx="84.57" ry="171.1" transform="translate(7.22 643.09) rotate(-85.24)"/><path class="cls-22" d="M450.26,200.51a145.52,145.52,0,0,1-22.58,86c-10.32,16.43-8.93,32.69,61.12,45.73C475.28,342.54,401,384.78,280.06,374c-90.9-6.88-171.89-67.54-176.73-154.11S172.22,58.82,268,53.46,445.42,113.94,450.26,200.51Z" transform="translate(0 -32.21)"/><path class="cls-6" d="M106.93,222.72c-4.84-86.57,62.74-161.3,167.84-167.42,30-1.75,58.69,4.85,84,15.59A187,187,0,0,0,268,53.46c-95.8,5.36-169.54,79.88-164.7,166.45,3.32,59.45,42.85,109.13,98.32,132.68C149.77,328,110.11,279.71,106.93,222.72Z" transform="translate(0 -32.21)"/><polygon class="cls-23" points="325.84 93.37 279.47 135.78 228.47 99.08 182.1 141.49 184.41 181.04 186.73 220.59 237.74 257.3 288.74 294 335.12 251.59 381.49 209.18 379.17 169.63 376.85 130.07 325.84 93.37"/><polygon class="cls-24" points="279.47 135.78 182.1 141.49 228.47 99.08 279.47 135.78"/><polygon class="cls-24" points="376.85 130.07 279.47 135.78 325.84 93.37 376.85 130.07"/><polygon class="cls-24" points="330.48 172.48 233.1 178.19 279.47 135.78 330.48 172.48"/><polygon class="cls-24" points="233.1 178.19 184.41 181.04 182.1 141.49 233.1 178.19"/><polygon class="cls-24" points="330.48 172.48 379.17 169.63 376.85 130.07 330.48 172.48"/><polygon class="cls-24" points="284.11 214.89 381.49 209.18 330.48 172.48 284.11 214.89"/><polygon class="cls-24" points="186.73 220.59 284.11 214.89 233.1 178.19 186.73 220.59"/><polygon class="cls-24" points="335.12 251.59 237.74 257.3 284.11 214.89 335.12 251.59"/></g></g></svg>